<?xml version="1.0" encoding="utf-8"?>
<!-- Generator: Adobe Illustrator 21.1.0, SVG Export Plug-In . SVG Version: 6.00 Build 0)  -->
<svg version="1.1" id="Layer_1" xmlns="http://www.w3.org/2000/svg" xmlns:xlink="http://www.w3.org/1999/xlink" x="0px" y="0px"
	 width="18px" height="18px" viewBox="0 0 18 18" style="enable-background:new 0 0 18 18;" xml:space="preserve">
<style type="text/css">
	.st0{fill:#109DFF;}
</style>
<path class="st0" d="M9,6.9c-0.7,0-1.1-0.4-1.1-1.1V1.5c0-0.7,0.4-1.1,1.1-1.1s1.1,0.4,1.1,1.1v4.2C10.1,6.4,9.7,6.9,9,6.9 M6.3,8.9
	C6.1,9.5,5.5,9.8,4.9,9.6l-4-1.3C0.3,8.1,0,7.4,0.2,6.8S1,5.8,1.6,6l4,1.3C6.2,7.6,6.5,8.2,6.3,8.9 M11.7,8.9c0.2,0.6,0.8,1,1.5,0.8
	l4-1.3c0.6-0.2,0.8-0.9,0.7-1.6c-0.1-0.7-0.8-1-1.5-0.8l-4,1.5C11.8,7.6,11.5,8.2,11.7,8.9 M3.5,17.3c-0.4-0.3-0.7-1.1-0.2-1.6
	l2.5-3.3c0.3-0.4,1.1-0.7,1.6-0.2c0.4,0.3,0.7,1.1,0.2,1.6L5.1,17C4.8,17.5,4.1,17.6,3.5,17.3 M14.5,17.3c0.4-0.3,0.7-1.1,0.2-1.6
	l-2.5-3.3c-0.3-0.4-1.1-0.7-1.6-0.2c-0.4,0.3-0.7,1.1-0.2,1.6l2.5,3.3C13.2,17.5,13.9,17.6,14.5,17.3"/>
</svg>
