<?xml version="1.0" encoding="utf-8"?>
<!-- Generator: Adobe Illustrator 21.1.0, SVG Export Plug-In . SVG Version: 6.00 Build 0)  -->
<svg version="1.1" id="svg2" xmlns="http://www.w3.org/2000/svg" xmlns:xlink="http://www.w3.org/1999/xlink" x="0px" y="0px"
	 width="18px" height="18px" viewBox="0 0 18 18" style="enable-background:new 0 0 18 18;" xml:space="preserve">
<style type="text/css">
	.st0{fill:#FFCB08;}
	.st1{fill:#0C4EA3;}
</style>
<g id="layer1">
	<g id="g4384" transform="matrix(.90995 0 0 .92063 -440.87 567.84)">
		<ellipse id="path3338-9" class="st0" cx="494.4" cy="-607" rx="9.9" ry="9.8"/>
		<path id="path4177-1-8" class="st1" d="M499.7-609.9c-1.2,0-2.1,1-2.1,2.1c-3.9,1.1-7.7,3.9-9.7,8.1c1,0.9,2.2,1.6,3.5,1.9
			c0.7-4.3,3.9-7.5,6.6-8.6c0.4,0.4,1,0.8,1.7,0.8c1.2,0,2.1-1,2.1-2.1C501.8-608.9,500.9-609.9,499.7-609.9z"/>
		<path id="path3338" class="st1" d="M492.8-614c-1.2,0-2.1,1-2.1,2.1v0.1c-2.7,1-4.7,2.8-6.1,4.9c0.1,1.9,0.7,3.7,1.7,5.3
			c0.1-3.5,1.8-6.9,4.8-9c0.4,0.6,1,0.8,1.7,0.8c1.2,0,2.1-1,2.1-2.1C495-613.1,493.9-614,492.8-614z"/>
	</g>
</g>
</svg>
