<?xml version="1.0" encoding="utf-8"?>
<!-- Generator: Adobe Illustrator 21.1.0, SVG Export Plug-In . SVG Version: 6.00 Build 0)  -->
<svg version="1.1" id="Layer_1" xmlns="http://www.w3.org/2000/svg" xmlns:xlink="http://www.w3.org/1999/xlink" x="0px" y="0px"
	 width="220px" height="58px" viewBox="0 0 220 58" style="enable-background:new 0 0 220 58;" xml:space="preserve">
<style type="text/css">
	.st0{fill:url(#SVGID_1_);}
	.st1{fill:#FFFFFF;}
	.st2{fill:url(#SVGID_2_);}
	.st3{fill:url(#SVGID_3_);}
	.st4{fill:url(#SVGID_4_);}
	.st5{fill:url(#SVGID_5_);}
	.st6{fill:url(#SVGID_6_);}
	.st7{fill:url(#SVGID_7_);}
</style>
<linearGradient id="SVGID_1_" gradientUnits="userSpaceOnUse" x1="4.0278" y1="743.8344" x2="34.4584" y2="743.8344" gradientTransform="matrix(1 0 0 1 0 -732)">
	<stop  offset="0" style="stop-color:#FFFFFF"/>
	<stop  offset="1" style="stop-color:#CFCECD"/>
</linearGradient>
<path class="st0" d="M34.5,1.6c-0.8,2.7-1.7,5.4-2.5,8c-2.8,0.1-7.1,0.7-11.9,2.9c-6.2,2.9-9.9,7.1-11.8,9.4
	c-1.3-2.1-2.8-4.2-4.2-6.3C6.4,13,10.8,8.3,18,5.1C24.9,2,31,1.6,34.5,1.6z"/>
<path d="M116.8,30.9h-6c0.1-0.1,0.3-0.4,0.3-0.5L130,5.8c0.9-1.2,1.7-2.3,2.7-3.5c0.3-0.3,0.4-0.4,0.8-0.4h4.7v0.7
	c0.1,3.5,0.1,6.8,0.3,10.3c0.1,3.9,0.3,7.8,0.3,11.7c0,1.9,0.1,3.8,0.1,5.6v0.5h-5.6c0-2.4-0.1-4.8-0.1-7.2h-10.2
	c-0.4,0-0.5,0.1-0.8,0.4c-1.6,2.1-3.2,4.3-4.8,6.3C117.2,30.5,117,30.6,116.8,30.9z M133.1,19.1V9c-0.1,0.3-0.3,0.4-0.4,0.5L131,12
	c-1.6,2.3-3.4,4.4-5,6.7c-0.1,0.1-0.3,0.3-0.4,0.5C128.2,19.1,130.6,19.1,133.1,19.1z M215.1,2l0.8,28.8h-5.6c-0.1-0.5,0-1.2,0-1.7
	v-5.5H200c-0.3,0-0.5,0.1-0.7,0.4c-1.6,2.1-3.4,4.4-5,6.6c-0.3,0.3-0.4,0.4-0.8,0.4H188c0.1-0.3,0.3-0.4,0.4-0.5
	c5-6.4,9.9-13,14.9-19.4l6.4-8.4c0.3-0.4,0.5-0.5,0.9-0.5L215.1,2L215.1,2z M202.8,19.1h7.4V9.2H210
	C207.9,12.5,205.3,15.7,202.8,19.1z M180,2h18.5c-0.5,1.5-1.2,2.9-1.7,4.4h-13c-0.9,2.4-2,5-2.9,7.5H192c-0.7,1.5-1.2,2.9-1.7,4.4
	H179c-1.7,4.2-3.4,8.3-5.1,12.6h-5.5C172.2,21.2,176.1,11.7,180,2z M155,2h5.5c-3.2,8.2-6.6,16.2-9.8,24.4H165
	c-0.7,1.5-1.2,2.9-1.7,4.4h-19.7C147.4,21.2,151.2,11.7,155,2L155,2z M172.7,35.7h7.4c1.1,0,2.3,0.1,3.4,0.4
	c0.5,0.1,0.9,0.3,1.5,0.5c1.6,0.8,2.3,2.3,1.9,4c-0.4,1.9-1.6,3.4-3.1,4.4c-1.3,0.9-2.8,1.5-4.4,1.9c-0.5,0.1-1.1,0.3-1.7,0.4
	c1.2,2.9,2.5,5.8,3.8,8.7H178l-3.6-8.4h-4c-0.5,1.3-1.2,2.5-1.7,3.9c-0.7,1.3-1.3,2.8-2,4.2c-0.1,0.3-0.3,0.4-0.7,0.4h-2.5
	C166.4,49.2,169.7,42.5,172.7,35.7z M171.3,45.3h3.9c1.1,0,2.1-0.1,3.2-0.3c1.3-0.3,2.5-0.7,3.5-1.5c0.9-0.7,1.5-1.5,1.7-2.5
	c0.3-1.1-0.1-2-1.2-2.5c-0.7-0.3-1.3-0.5-2-0.5h-5.6C173.5,40.4,172.5,42.8,171.3,45.3z M137.9,56.2c0.1-0.3,0.3-0.3,0.3-0.4
	c5.8-6.6,11.7-13.1,17.4-19.7c0.3-0.3,0.5-0.4,0.9-0.4h2v0.8c0,2.4,0.1,4.8,0.1,7.2c0.1,3.9,0.1,7.6,0.3,11.5v0.9H156
	c0-2-0.1-4-0.1-6.2H147c-0.3,0-0.5,0.1-0.8,0.4c-1.6,1.9-3.2,3.6-4.8,5.5c-0.3,0.3-0.5,0.4-0.8,0.4C139.8,56.2,139,56.2,137.9,56.2
	L137.9,56.2z M155.8,39.3C155.8,39.3,155.7,39.3,155.8,39.3c-0.1,0-0.3,0.1-0.4,0.3c-0.4,0.4-0.7,0.9-1.1,1.3
	c-1.9,2.1-3.6,4.2-5.5,6.3c-0.1,0.1-0.3,0.3-0.3,0.4c1.1,0.1,6.8,0.1,7.2,0L155.8,39.3L155.8,39.3z M208.3,36.5
	c-0.4,0.8-0.7,1.5-0.9,2.1c-1.1-0.3-2.1-0.7-3.1-0.8c-2-0.4-4-0.5-6,0c-0.8,0.3-1.5,0.5-2.1,0.9c-0.8,0.7-1.5,1.3-1.6,2.4
	c-0.1,0.8,0,1.5,0.8,2c0.5,0.3,0.9,0.5,1.6,0.8c1.2,0.4,2.5,0.7,3.8,1.1c0.8,0.3,1.5,0.5,2,1.1c1.1,0.8,1.5,1.9,1.3,3.2
	c-0.3,1.9-1.2,3.4-2.7,4.6c-1.5,1.2-3.1,1.9-4.8,2.3c-3.2,0.7-6.3,0.7-9.4-0.1c-0.4-0.1-0.9-0.3-1.3-0.5c-0.1,0-0.3-0.1-0.5-0.3
	c0.4-0.7,0.7-1.5,1.1-2.1c0.9,0.4,1.9,0.8,2.9,0.9c2.5,0.5,5.1,0.5,7.6-0.3c0.9-0.3,1.7-0.7,2.4-1.3c0.7-0.7,1.2-1.5,1.5-2.4
	c0.3-1.1-0.1-1.9-1.1-2.4c-0.5-0.3-1.1-0.5-1.7-0.7c-0.8-0.3-1.6-0.4-2.4-0.7c-0.7-0.1-1.2-0.4-1.9-0.7c-0.4-0.1-0.8-0.4-1.2-0.7
	c-1.1-0.8-1.5-1.9-1.2-3.2c0.4-2.1,1.6-3.6,3.4-4.8c1.3-0.8,2.8-1.3,4.3-1.5c3.1-0.4,6-0.1,9,0.8C207.9,36.2,208,36.4,208.3,36.5
	L208.3,36.5z M136,53.7c-0.4,0.8-0.7,1.3-0.9,2c-0.1,0.1-0.3,0.3-0.4,0.3c-0.9,0.1-1.9,0.4-2.8,0.5c-1.3,0.1-2.8,0.1-4.2,0
	c-1.2-0.1-2.3-0.4-3.4-0.9c-1.7-0.8-2.8-2-3.1-3.9c-0.3-1.2-0.1-2.3,0.3-3.5c0.9-3.4,2.7-6.3,5.4-8.6c3.5-3.1,7.6-4.4,12.2-4.4
	c1.3,0,2.7,0.3,4,0.5c0.1,0,0.3,0.1,0.5,0.1c-0.4,0.7-0.7,1.5-0.9,2.1c-0.5-0.1-0.9-0.3-1.3-0.4c-5.8-1.2-10.3,0.5-13.9,5.1
	c-1.3,1.6-2.1,3.6-2.7,5.6c-0.1,0.7-0.3,1.5-0.1,2.1c0.3,1.2,0.8,2.1,1.9,2.7c0.9,0.5,1.9,0.7,2.9,0.8c2.1,0.3,4.3-0.1,6.4-0.5
	C135.7,53.7,135.9,53.7,136,53.7z"/>
<path class="st1" d="M133.1,19.1h-7.4c0.1-0.1,0.3-0.4,0.4-0.5c1.6-2.3,3.4-4.4,5-6.7l1.6-2.4c0.1-0.1,0.1-0.3,0.4-0.5V19.1z
	 M202.8,19.1c2.5-3.4,5-6.6,7.2-10.1h0.1v9.9C207.7,19.1,205.3,19.1,202.8,19.1z M171.3,45.3c1.2-2.5,2.3-5,3.5-7.5h5.6
	c0.7,0,1.3,0.1,2,0.5c1.1,0.5,1.5,1.3,1.2,2.5c-0.3,1.1-0.8,1.9-1.7,2.5c-1.1,0.8-2.3,1.3-3.5,1.5c-1.1,0.1-2.1,0.3-3.2,0.3h-3.4
	C171.7,45.3,171.5,45.3,171.3,45.3z M155.8,39.3v8.3c-0.4,0.1-6.2,0.1-7.2,0c0.1-0.1,0.3-0.3,0.3-0.4c1.9-2.1,3.6-4.2,5.5-6.3
	c0.4-0.4,0.7-0.9,1.1-1.3C155.6,39.6,155.7,39.4,155.8,39.3C155.7,39.3,155.8,39.3,155.8,39.3L155.8,39.3z"/>
<linearGradient id="SVGID_2_" gradientUnits="userSpaceOnUse" x1="65.2564" y1="739.9802" x2="88.5511" y2="780.3252" gradientTransform="matrix(1 0 0 1 0 -732)">
	<stop  offset="0.503" style="stop-color:#C9221C"/>
	<stop  offset="1" style="stop-color:#000000"/>
</linearGradient>
<path class="st2" d="M92.2,17.6c0.3-1.1,0.1-1.9,0-2.4c-0.5-2.3-2.5-3.5-3.4-3.9c-2.4-1.3-4.7-1.3-6.4-1.2c-3.8,0.3-6.4,1.7-8,2.5
	c-3.5,1.9-5.6,4.3-7.1,5.9c0,0-7.1,7.9-7.9,17v1.6c0.3,2.9,2,5,2.5,5.6c2.3,2.7,5,3.5,7.1,4.2c1.6,0.5,4.3,1.1,7.9,0.8
	c-0.7,2.8-1.5,5.6-2.1,8.4c-1.5,0.1-3.8,0.1-6.3-0.1c-2.3-0.3-4.7-0.5-7.6-1.7c-1.5-0.7-3.8-1.6-5.9-3.8c0,0-2-2-3.4-4.7
	c-2.9-6.2-0.9-13.8,0-17.3c0.9-3.4,3.1-10.9,9.8-17.3C66,6.7,71,4.7,73.3,3.8c2.1-0.8,5-2,8.8-2.4c2.8-0.3,11.1-1.2,16.5,3.9
	c0.8,0.8,2.7,2.5,3.5,5.5c0.7,2.1,0.5,4,0.4,5.1C99.1,16.5,95.7,17.1,92.2,17.6L92.2,17.6z"/>
<linearGradient id="SVGID_3_" gradientUnits="userSpaceOnUse" x1="34.2452" y1="789.7657" x2="39.1557" y2="733.6488" gradientTransform="matrix(1 0 0 1 0 -732)">
	<stop  offset="0.301" style="stop-color:#B82A26"/>
	<stop  offset="0.69" style="stop-color:#000000"/>
</linearGradient>
<path class="st3" d="M53.3,19.3c-0.4-2.3-1.7-3.6-2.5-4.6c-2.1-2.3-4.7-3.2-6.8-3.9c-1.7-0.5-4.6-1.3-8.3-1.2l2.4-8
	c2.3,0,5.8,0.3,9.7,1.3c3.1,0.9,6.4,1.9,9.8,5c1.3,1.2,4.3,4,5.4,8.4c0.5,2.3,0.4,4.2,0.1,6c-1.9,14.9-11.3,23.7-11.3,23.7
	c-8.4,8.2-22.3,13.3-32.4,9.4c-1.7-0.7-5.5-2.1-7.6-5.9c-2.7-4.6-1.5-9.5-0.9-11.3c1.1-3.5,3.2-5.8,4.6-7.1c3.2-3.4,6.7-4.7,8.4-5.4
	c0.5-0.3,3.5-1.3,7.1-1.6c1.5-0.1,3.8-0.1,5.5-0.1h16.5C53.2,23.6,53.8,21.8,53.3,19.3z M30.4,33.3c-1.1,0-5,0.4-7.6,3.5
	c-0.7,0.8-2.8,3.2-2.1,6c0.4,1.7,1.7,2.8,2.1,3.1c0.9,0.7,2,0.9,3.8,1.2c1.9,0.1,4.3,0.4,7.6-0.4c1.2-0.3,5.1-1.3,8.8-4.7
	c3.6-3.2,5.4-6.8,6-8.8C42.8,33.3,36.5,33.3,30.4,33.3z"/>
<linearGradient id="SVGID_4_" gradientUnits="userSpaceOnUse" x1="78.682" y1="776.9568" x2="110.9008" y2="776.9568" gradientTransform="matrix(1 0 0 1 0 -732)">
	<stop  offset="0" style="stop-color:#CFCECD"/>
	<stop  offset="1" style="stop-color:#FFFFFF"/>
</linearGradient>
<path class="st4" d="M80.8,47.6c2.7,0,7.1-0.4,11.8-2.5c7.4-3.2,11.5-8.7,13.1-11.3c1.7,2.1,3.4,4.3,5.1,6.4
	c-2,2.8-6.6,8.2-14.3,11.9c-7.5,3.6-14.5,4-17.8,3.9C79.4,53.4,80.1,50.6,80.8,47.6z"/>
<linearGradient id="SVGID_5_" gradientUnits="userSpaceOnUse" x1="20.4121" y1="764.9481" x2="52.7194" y2="764.9481" gradientTransform="matrix(1 0 0 1 0 -732)">
	<stop  offset="0" style="stop-color:#C02825"/>
	<stop  offset="0.219" style="stop-color:#BB2724"/>
	<stop  offset="1" style="stop-color:#000000"/>
</linearGradient>
<path class="st5" d="M52.8,24.4H36.3c-1.3,0.1-7.5,0.9-11.9,6.4c-3.5,4.3-3.9,9-3.9,10.6c0.1-1.1,0.7-2.4,1.6-3.8
	c2.8-3.9,7.5-4.3,8.3-4.4H49C50.2,30.3,51.6,27.4,52.8,24.4z"/>
<linearGradient id="SVGID_6_" gradientUnits="userSpaceOnUse" x1="22.3837" y1="779.8758" x2="48.7805" y2="764.6364" gradientTransform="matrix(1 0 0 1 0 -732)">
	<stop  offset="0" style="stop-color:#BB0E0A"/>
	<stop  offset="3.200000e-02" style="stop-color:#C0211E"/>
	<stop  offset="0.136" style="stop-color:#D15B59"/>
	<stop  offset="0.239" style="stop-color:#DF8D8B"/>
	<stop  offset="0.341" style="stop-color:#EAB6B5"/>
	<stop  offset="0.439" style="stop-color:#F3D6D5"/>
	<stop  offset="0.532" style="stop-color:#FAEDEC"/>
	<stop  offset="0.621" style="stop-color:#FEFAFA"/>
	<stop  offset="0.698" style="stop-color:#FFFFFF"/>
</linearGradient>
<path class="st6" d="M20.5,41.9c-0.1,2.3,0.5,3.5,0.9,4.2c2.7,3.9,9.7,2.5,10.5,2.4c2-0.4,3.6-1.1,4.4-1.5c0.4-0.3,2.1-1.1,4.2-2.5
	c1.1-0.8,4.3-3.5,7-8c0.8-1.3,1.3-2.3,1.6-3.1c0,0-0.7,1.3-1.6,2.9c-2,3.5-4.6,5.6-5.1,6.2c-3.1,2.5-6,3.5-7.1,3.9
	c-4,1.3-7.2,0.9-8.2,0.8c-2.8-0.4-3.4-0.9-4.2-1.5C21.1,44.3,20.7,42.7,20.5,41.9z"/>
<linearGradient id="SVGID_7_" gradientUnits="userSpaceOnUse" x1="62.3607" y1="749.0172" x2="93.1291" y2="749.0172" gradientTransform="matrix(1 0 0 1 0 -732)">
	<stop  offset="0" style="stop-color:#FFFFFF"/>
	<stop  offset="8.800000e-02" style="stop-color:#FCF4F4"/>
	<stop  offset="0.242" style="stop-color:#F2D8D7"/>
	<stop  offset="0.443" style="stop-color:#E3AAA8"/>
	<stop  offset="0.685" style="stop-color:#CE6B67"/>
	<stop  offset="0.957" style="stop-color:#B31A16"/>
	<stop  offset="1" style="stop-color:#AF0D08"/>
</linearGradient>
<path class="st7" d="M92.3,17.6c0.3-0.5,1.3-2.7,0.5-5.1c-0.7-1.7-2-2.7-2.5-3.1c-3.4-2.3-9-1.6-13.3,0.4
	C66.6,14.4,62.5,26.2,62.4,26c-0.1,0,2-4.3,5.9-8.4c0.7-0.8,2.5-2.5,5-4.2c1.2-0.8,2.1-1.3,2.5-1.5c1.2-0.5,2.1-0.9,2.7-1.1
	c0.8-0.3,2.4-0.7,4.4-0.8c1.3,0,2.8-0.1,4.4,0.5c1.1,0.4,1.9,0.9,2.3,1.2c0.8,0.5,1.7,1.2,2.3,2.4C92.6,15.6,92.4,16.9,92.3,17.6z"
	/>
</svg>
