<?xml version="1.0" encoding="utf-8"?>
<!-- Generator: Adobe Illustrator 21.1.0, SVG Export Plug-In . SVG Version: 6.00 Build 0)  -->
<svg version="1.0"
	 id="svg2231" inkscape:version="0.47 r22583" sodipodi:docname="Mercedes-Benz_logo.svg" xmlns:cc="http://creativecommons.org/ns#" xmlns:dc="http://purl.org/dc/elements/1.1/" xmlns:inkscape="http://www.inkscape.org/namespaces/inkscape" xmlns:rdf="http://www.w3.org/1999/02/22-rdf-syntax-ns#" xmlns:sodipodi="http://sodipodi.sourceforge.net/DTD/sodipodi-0.dtd" xmlns:svg="http://www.w3.org/2000/svg"
	 xmlns="http://www.w3.org/2000/svg" xmlns:xlink="http://www.w3.org/1999/xlink" x="0px" y="0px" width="50px" height="50px"
	 viewBox="0 0 50 50" style="enable-background:new 0 0 50 50;" xml:space="preserve">
<style type="text/css">
	.st0{fill:#FFFFFF;}
	.st1{fill:#231F20;}
</style>
<sodipodi:namedview  bordercolor="#666666" borderopacity="1" gridtolerance="10" guidetolerance="10" id="namedview27" inkscape:current-layer="svg2231" inkscape:cx="354.33071" inkscape:cy="251.388" inkscape:pageopacity="0" inkscape:pageshadow="2" inkscape:window-height="710" inkscape:window-maximized="1" inkscape:window-width="1280" inkscape:window-x="-4" inkscape:window-y="-4" inkscape:zoom="0.43847562" objecttolerance="10" pagecolor="#ffffff" showgrid="false">
	</sodipodi:namedview>
<defs>
	
	
		<inkscape:perspective  id="perspective31" inkscape:persp3d-origin="372.04724 : 179.40944 : 1" inkscape:vp_x="0 : 269.11417 : 1" inkscape:vp_y="0 : 1000 : 0" inkscape:vp_z="744.09448 : 269.11417 : 1" sodipodi:type="inkscape:persp3d">
		</inkscape:perspective>
</defs>
<g id="layer1" transform="matrix(0.28315497,0,0,0.28315497,-461.5297,54.893088)">
	<g id="g4178" transform="translate(17.716541,17.72616)">
		<path id="path9939" class="st0" d="M1687.2-131l12-72c-43.3,0.8-78.3,36.2-78.3,79.7c0,13.6,3.7,26.6,9.9,38.6L1687.2-131
			L1687.2-131z M1700.4-107.9l-68.3,25.6c14.2,23.8,40.7,38.6,68.4,38.6c27.8,0,54-14.7,68.3-38.6L1700.4-107.9z M1713.8-131
			l56.5,46.2c6.3-11.9,10-25,10-38.6c0-43.9-34.8-78.4-78.3-79.8L1713.8-131L1713.8-131z M1788.8-123.3c0,48.5-39.8,88.3-88.3,88.3
			c-48.5,0-88.3-39.8-88.3-88.3c0-48.5,39.8-88.3,88.3-88.3C1749.1-211.6,1788.8-171.8,1788.8-123.3"/>
		<path id="path9979" class="st1" d="M1788.8-123.3c0,48.5-39.8,88.3-88.3,88.3c-48.5,0-88.3-39.8-88.3-88.3
			c0-48.5,39.8-88.3,88.3-88.3C1749.1-211.6,1788.8-171.8,1788.8-123.3z M1681-113.4l-0.1,0.2l0.3-0.1l16.9-10l-3-1.7
			C1695-125,1681-113.4,1681-113.4z M1758.2-90.7h0.3l-0.2-0.3l-51.3-34.5l-3.9,2.2C1703.1-123.3,1758.2-90.7,1758.2-90.7z
			 M1700-185.1l-0.1-0.2l-0.1,0.2l-3.6,57.7l3.2,1.9L1700-185.1L1700-185.1z M1753.5-185.6l0.1,0.3c4.2,3.9,8.1,8.1,11.7,12.6
			c11.1,14,17,31.6,17,49.4c0,14.1-3.8,27.6-10.5,39.9l0.9,1.7l-1.9,0.1c-14.7,24.5-41.6,40-70.3,40c-28.7,0-55.5-15.3-70.2-40
			l-1.8-0.1l0.7-1.7c-4.3-7.9-7.2-16.2-9-25l-0.2-0.2l-0.1,0.3c1.1,9.3,4.1,18.3,8.5,26.6c14.4,27.1,41.4,43,72,43
			c46.5,0,84.5-38.2,84.5-84.6c0-23.8-12.3-47.8-31.2-62.3H1753.5L1753.5-185.6z M1699.2-203c-43.3,0.8-78.3,36.2-78.3,79.7
			c0,13.6,3.7,26.6,9.9,38.6l55.3-45.3l4.5,2.6l-60.4,44.3l-0.2,0.6h0.7l68.7-38.7l-0.1,13.9l-66.9,25.1
			c14.2,23.8,40.7,38.6,68.4,38.6c27.8,0,54-14.7,68.3-38.6l-66.9-25.1l-0.2-13.9l68.9,38.7h0.6l-0.3-0.5l-60.4-44.4l4.5-2.6
			l55.3,45.3c6.3-11.9,10-25,10-38.6c0-43.9-34.8-78.4-78.3-79.8l11.6,70.7l-11.8,7l-0.9-78.9l-0.3-0.4l-0.3,0.4l-8.4,74.4l-4.5-2.5
			L1699.2-203L1699.2-203z M1644.2-58.4c-17.2-17.2-27-40.4-27-64.9c0-45.9,37.5-83.4,83.4-83.4c40.2,0,74.5,29.1,84.6,67.3l0.2,0.1
			l0.1-0.2c-8-40.4-43.4-70.1-84.9-70.1c-47.4,0-86.3,38.9-86.3,86.3c0,25,11.1,48.6,29.8,65.2h0.2L1644.2-58.4"/>
	</g>
</g>
</svg>
