<?xml version="1.0" encoding="utf-8"?>
<!-- Generator: Adobe Illustrator 21.1.0, SVG Export Plug-In . SVG Version: 6.00 Build 0)  -->
<svg version="1.0" id="Слой_1" xmlns="http://www.w3.org/2000/svg" xmlns:xlink="http://www.w3.org/1999/xlink" x="0px" y="0px"
	 width="50px" height="50px" viewBox="0 0 50 50" style="enable-background:new 0 0 50 50;" xml:space="preserve">
<style type="text/css">
	.st0{fill-rule:evenodd;clip-rule:evenodd;fill:#24388D;}
	.st1{fill-rule:evenodd;clip-rule:evenodd;fill:#22398E;}
	.st2{fill-rule:evenodd;clip-rule:evenodd;fill:#213A8F;}
	.st3{fill-rule:evenodd;clip-rule:evenodd;fill:#1F3C90;}
	.st4{fill-rule:evenodd;clip-rule:evenodd;fill:#1D3D91;}
	.st5{fill-rule:evenodd;clip-rule:evenodd;fill:#1B3F92;}
	.st6{fill-rule:evenodd;clip-rule:evenodd;fill:#194093;}
	.st7{fill-rule:evenodd;clip-rule:evenodd;fill:#164194;}
	.st8{fill-rule:evenodd;clip-rule:evenodd;fill:#134395;}
	.st9{fill-rule:evenodd;clip-rule:evenodd;fill:#0F4496;}
	.st10{fill-rule:evenodd;clip-rule:evenodd;fill:#0B4697;}
	.st11{fill-rule:evenodd;clip-rule:evenodd;fill:#054798;}
	.st12{fill-rule:evenodd;clip-rule:evenodd;fill:#004899;}
	.st13{fill-rule:evenodd;clip-rule:evenodd;fill:#004A9B;}
	.st14{fill-rule:evenodd;clip-rule:evenodd;fill:#004B9C;}
	.st15{fill-rule:evenodd;clip-rule:evenodd;fill:#004D9D;}
	.st16{fill-rule:evenodd;clip-rule:evenodd;fill:#004E9E;}
	.st17{fill-rule:evenodd;clip-rule:evenodd;fill:#004F9F;}
	.st18{fill-rule:evenodd;clip-rule:evenodd;fill:#0050A0;}
	.st19{fill-rule:evenodd;clip-rule:evenodd;fill:#0052A1;}
	.st20{fill-rule:evenodd;clip-rule:evenodd;fill:#0053A2;}
	.st21{fill-rule:evenodd;clip-rule:evenodd;fill:#0055A3;}
	.st22{fill-rule:evenodd;clip-rule:evenodd;fill:#0056A4;}
	.st23{fill-rule:evenodd;clip-rule:evenodd;fill:#0057A5;}
	.st24{fill-rule:evenodd;clip-rule:evenodd;fill:#0059A6;}
	.st25{fill-rule:evenodd;clip-rule:evenodd;fill:#005AA7;}
	.st26{fill-rule:evenodd;clip-rule:evenodd;fill:#005BA8;}
	.st27{fill-rule:evenodd;clip-rule:evenodd;fill:#005CA9;}
	.st28{fill-rule:evenodd;clip-rule:evenodd;fill:#005EAA;}
	.st29{fill-rule:evenodd;clip-rule:evenodd;fill:#005FAB;}
	.st30{fill-rule:evenodd;clip-rule:evenodd;fill:#0060AC;}
	.st31{fill-rule:evenodd;clip-rule:evenodd;fill:#0062AE;}
	.st32{fill-rule:evenodd;clip-rule:evenodd;fill:#0063AF;}
	.st33{fill-rule:evenodd;clip-rule:evenodd;fill:#0064B0;}
	.st34{fill-rule:evenodd;clip-rule:evenodd;fill:#0065B1;}
	.st35{fill-rule:evenodd;clip-rule:evenodd;fill:#0067B2;}
	.st36{fill-rule:evenodd;clip-rule:evenodd;fill:#0069B4;}
	.st37{fill-rule:evenodd;clip-rule:evenodd;fill:#312783;}
	.st38{fill-rule:evenodd;clip-rule:evenodd;fill:#FFFFFF;}
</style>
<g>
	<path class="st0" d="M25,49.9c13.8,0,24.9-11.1,24.9-24.9C49.9,11.2,38.8,0.1,25,0.1C11.2,0.1,0.1,11.2,0.1,25
		C0.1,38.8,11.2,49.9,25,49.9L25,49.9z M49.7,25c0,13.6-11,24.6-24.7,24.6S0.3,38.6,0.3,25c0-13.6,11-24.7,24.7-24.7
		S49.7,11.4,49.7,25L49.7,25z"/>
	<path class="st1" d="M25,49.9c13.8,0,24.9-11.1,24.9-24.9C49.9,11.2,38.8,0.1,25,0.1C11.2,0.1,0.1,11.2,0.1,25
		C0.1,38.8,11.2,49.9,25,49.9L25,49.9z M49,25C49,38.2,38.2,49,25,49C11.8,49,1,38.2,1,25C1,11.8,11.8,1,25,1C38.2,1,49,11.8,49,25
		L49,25z"/>
	<path class="st2" d="M49.7,25c0-13.6-11-24.7-24.7-24.7S0.3,11.4,0.3,25c0,13.6,11,24.6,24.7,24.6S49.7,38.6,49.7,25L49.7,25z
		 M48.3,25c0,12.8-10.4,23.2-23.3,23.2S1.7,37.9,1.7,25C1.7,12.1,12.2,1.7,25,1.7S48.3,12.1,48.3,25L48.3,25z"/>
	<path class="st3" d="M49,25C49,11.8,38.2,1,25,1C11.8,1,1,11.8,1,25C1,38.2,11.8,49,25,49C38.2,49,49,38.2,49,25L49,25z M47.6,25
		c0,12.4-10.1,22.5-22.6,22.5C12.5,47.6,2.4,37.5,2.4,25C2.4,12.5,12.5,2.4,25,2.4C37.5,2.4,47.6,12.5,47.6,25L47.6,25z"/>
	<path class="st4" d="M48.3,25C48.3,12.1,37.9,1.7,25,1.7S1.7,12.1,1.7,25c0,12.8,10.4,23.2,23.3,23.2S48.3,37.9,48.3,25L48.3,25z
		 M46.9,25c0,12-9.8,21.8-21.9,21.8S3.2,37.1,3.2,25C3.2,12.9,12.9,3.2,25,3.2S46.9,12.9,46.9,25L46.9,25z"/>
	<path class="st5" d="M47.6,25C47.6,12.5,37.5,2.4,25,2.4C12.5,2.4,2.4,12.5,2.4,25c0,12.4,10.1,22.5,22.6,22.5
		C37.5,47.6,47.6,37.5,47.6,25L47.6,25z M46.2,25c0,11.7-9.5,21.1-21.2,21.1C13.3,46.1,3.9,36.7,3.9,25C3.9,13.3,13.3,3.9,25,3.9
		C36.7,3.9,46.2,13.3,46.2,25L46.2,25z"/>
	<path class="st6" d="M46.9,25c0-12.1-9.8-21.9-21.9-21.9S3.2,12.9,3.2,25c0,12,9.8,21.8,21.9,21.8S46.9,37.1,46.9,25L46.9,25z
		 M45.4,25c0,11.3-9.2,20.4-20.4,20.4S4.6,36.3,4.6,25C4.6,13.7,13.7,4.6,25,4.6S45.4,13.7,45.4,25L45.4,25z"/>
	<path class="st7" d="M46.2,25c0-11.7-9.5-21.2-21.2-21.2C13.3,3.9,3.9,13.3,3.9,25c0,11.7,9.5,21.1,21.2,21.1
		C36.7,46.1,46.2,36.7,46.2,25L46.2,25z M44.7,25c0,10.9-8.8,19.7-19.7,19.7S5.3,35.9,5.3,25C5.3,14.1,14.1,5.3,25,5.3
		S44.7,14.1,44.7,25L44.7,25z"/>
	<path class="st8" d="M45.4,25c0-11.3-9.2-20.5-20.4-20.5S4.6,13.7,4.6,25c0,11.3,9.2,20.4,20.4,20.4S45.4,36.3,45.4,25L45.4,25z
		 M44,25c0,10.5-8.5,19-19,19S6,35.5,6,25C6,14.5,14.5,6,25,6S44,14.5,44,25L44,25z"/>
	<path class="st9" d="M44.7,25c0-10.9-8.8-19.8-19.7-19.8S5.3,14.1,5.3,25c0,10.9,8.8,19.7,19.7,19.7S44.7,35.9,44.7,25L44.7,25z
		 M43.3,25c0,10.1-8.2,18.3-18.3,18.3C14.9,43.3,6.7,35.1,6.7,25C6.7,14.9,14.9,6.7,25,6.7C35.1,6.7,43.3,14.9,43.3,25L43.3,25z"/>
	<path class="st10" d="M44,25c0-10.5-8.5-19-19-19S6,14.5,6,25c0,10.5,8.5,19,19,19S44,35.5,44,25L44,25z M42.6,25
		c0,9.7-7.9,17.6-17.6,17.6c-9.7,0-17.6-7.9-17.6-17.6c0-9.7,7.9-17.6,17.6-17.6C34.7,7.4,42.6,15.3,42.6,25L42.6,25z"/>
	<path class="st11" d="M43.3,25c0-10.1-8.2-18.3-18.3-18.3C14.9,6.7,6.7,14.9,6.7,25c0,10.1,8.2,18.3,18.3,18.3
		C35.1,43.3,43.3,35.1,43.3,25L43.3,25z M41.9,25c0,9.3-7.6,16.9-16.9,16.9c-9.3,0-16.9-7.6-16.9-16.9c0-9.3,7.6-16.9,16.9-16.9
		C34.4,8.1,41.9,15.7,41.9,25L41.9,25z"/>
	<path class="st12" d="M42.6,25c0-9.7-7.9-17.6-17.6-17.6C15.3,7.4,7.4,15.3,7.4,25c0,9.7,7.9,17.6,17.6,17.6
		C34.7,42.6,42.6,34.7,42.6,25L42.6,25z M41.2,25c0,9-7.3,16.2-16.2,16.2c-9,0-16.2-7.2-16.2-16.2S16.1,8.8,25,8.8
		C34,8.8,41.2,16.1,41.2,25L41.2,25z"/>
	<path class="st13" d="M41.9,25c0-9.3-7.6-16.9-16.9-16.9C15.7,8.1,8.1,15.7,8.1,25c0,9.3,7.6,16.9,16.9,16.9
		C34.4,41.9,41.9,34.3,41.9,25L41.9,25z M40.5,25c0,8.6-7,15.5-15.5,15.5c-8.6,0-15.5-6.9-15.5-15.5c0-8.6,7-15.5,15.5-15.5
		C33.6,9.5,40.5,16.4,40.5,25L40.5,25z"/>
	<path class="st14" d="M41.2,25c0-9-7.3-16.2-16.2-16.2c-9,0-16.2,7.3-16.2,16.2S16.1,41.2,25,41.2C34,41.2,41.2,34,41.2,25L41.2,25
		z M39.8,25c0,8.2-6.6,14.8-14.8,14.8S10.2,33.2,10.2,25c0-8.2,6.6-14.8,14.8-14.8S39.8,16.8,39.8,25L39.8,25z"/>
	<path class="st15" d="M40.5,25c0-8.6-7-15.5-15.5-15.5C16.5,9.5,9.5,16.4,9.5,25c0,8.6,7,15.5,15.5,15.5
		C33.6,40.5,40.5,33.6,40.5,25L40.5,25z M39.1,25c0,7.8-6.3,14.1-14.1,14.1S10.9,32.8,10.9,25c0-7.8,6.3-14.1,14.1-14.1
		S39.1,17.2,39.1,25L39.1,25z"/>
	<path class="st16" d="M39.8,25c0-8.2-6.6-14.8-14.8-14.8S10.2,16.8,10.2,25c0,8.2,6.6,14.8,14.8,14.8S39.8,33.2,39.8,25L39.8,25z
		 M38.4,25c0,7.4-6,13.4-13.4,13.4c-7.4,0-13.4-6-13.4-13.4c0-7.4,6-13.4,13.4-13.4C32.4,11.6,38.4,17.6,38.4,25L38.4,25z"/>
	<path class="st17" d="M39.1,25c0-7.8-6.3-14.1-14.1-14.1S10.9,17.2,10.9,25c0,7.8,6.3,14.1,14.1,14.1S39.1,32.8,39.1,25L39.1,25z
		 M37.7,25c0,7-5.7,12.7-12.7,12.7c-7,0-12.7-5.7-12.7-12.7c0-7,5.7-12.7,12.7-12.7C32,12.3,37.7,18,37.7,25L37.7,25z"/>
	<path class="st18" d="M38.4,25c0-7.4-6-13.4-13.4-13.4c-7.4,0-13.4,6-13.4,13.4c0,7.4,6,13.4,13.4,13.4
		C32.4,38.4,38.4,32.4,38.4,25L38.4,25z M37,25c0,6.6-5.4,12-12,12c-6.6,0-12-5.4-12-12c0-6.6,5.4-12,12-12C31.6,13,37,18.4,37,25
		L37,25z"/>
	<path class="st19" d="M37.7,25c0-7-5.7-12.7-12.7-12.7c-7,0-12.7,5.7-12.7,12.7c0,7,5.7,12.7,12.7,12.7C32,37.7,37.7,32,37.7,25
		L37.7,25z M36.3,25c0,6.2-5,11.3-11.3,11.3c-6.2,0-11.3-5-11.3-11.3c0-6.2,5-11.3,11.3-11.3C31.2,13.7,36.3,18.8,36.3,25L36.3,25z"
		/>
	<path class="st20" d="M37,25c0-6.6-5.4-12-12-12c-6.6,0-12,5.4-12,12c0,6.6,5.4,12,12,12C31.6,37,37,31.6,37,25L37,25z M35.6,25
		c0,5.8-4.7,10.6-10.6,10.6c-5.8,0-10.6-4.7-10.6-10.6c0-5.8,4.7-10.6,10.6-10.6C30.8,14.4,35.6,19.2,35.6,25L35.6,25z"/>
	<path class="st21" d="M36.3,25c0-6.2-5-11.3-11.3-11.3c-6.2,0-11.3,5-11.3,11.3c0,6.2,5,11.3,11.3,11.3
		C31.2,36.3,36.3,31.2,36.3,25L36.3,25z M34.9,25c0,5.4-4.4,9.9-9.9,9.9c-5.4,0-9.9-4.4-9.9-9.9c0-5.5,4.4-9.9,9.9-9.9
		C30.5,15.1,34.9,19.5,34.9,25L34.9,25z"/>
	<path class="st22" d="M35.6,25c0-5.8-4.7-10.6-10.6-10.6c-5.8,0-10.6,4.7-10.6,10.6c0,5.8,4.7,10.6,10.6,10.6
		C30.8,35.6,35.6,30.8,35.6,25L35.6,25z M34.2,25c0,5-4.1,9.2-9.2,9.2c-5.1,0-9.2-4.1-9.2-9.2c0-5.1,4.1-9.2,9.2-9.2
		C30.1,15.8,34.2,19.9,34.2,25L34.2,25z"/>
	<path class="st23" d="M34.9,25c0-5.5-4.4-9.9-9.9-9.9c-5.4,0-9.9,4.4-9.9,9.9c0,5.4,4.4,9.9,9.9,9.9C30.5,34.9,34.9,30.5,34.9,25
		L34.9,25z M33.5,25c0,4.7-3.8,8.4-8.4,8.4c-4.7,0-8.4-3.8-8.4-8.4c0-4.7,3.8-8.5,8.4-8.5C29.7,16.5,33.5,20.3,33.5,25L33.5,25z"/>
	<path class="st24" d="M34.2,25c0-5.1-4.1-9.2-9.2-9.2c-5.1,0-9.2,4.1-9.2,9.2c0,5,4.1,9.2,9.2,9.2C30.1,34.2,34.2,30.1,34.2,25
		L34.2,25z M32.8,25c0,4.3-3.5,7.7-7.7,7.7c-4.3,0-7.7-3.5-7.7-7.7c0-4.3,3.5-7.8,7.7-7.8C29.3,17.2,32.8,20.7,32.8,25L32.8,25z"/>
	<path class="st25" d="M33.5,25c0-4.7-3.8-8.5-8.4-8.5c-4.7,0-8.4,3.8-8.4,8.5c0,4.7,3.8,8.4,8.4,8.4C29.7,33.5,33.5,29.7,33.5,25
		L33.5,25z M32.1,25c0,3.9-3.2,7-7,7c-3.9,0-7-3.2-7-7c0-3.9,3.2-7.1,7-7.1C28.9,17.9,32.1,21.1,32.1,25L32.1,25z"/>
	<path class="st26" d="M32.8,25c0-4.3-3.5-7.8-7.7-7.8c-4.3,0-7.7,3.5-7.7,7.8c0,4.3,3.5,7.7,7.7,7.7C29.3,32.8,32.8,29.3,32.8,25
		L32.8,25z M31.4,25c0,3.5-2.8,6.3-6.3,6.3c-3.5,0-6.3-2.9-6.3-6.3c0-3.5,2.8-6.3,6.3-6.3C28.5,18.7,31.4,21.5,31.4,25L31.4,25z"/>
	<path class="st27" d="M32.1,25c0-3.9-3.2-7.1-7-7.1c-3.9,0-7,3.2-7,7.1c0,3.9,3.2,7,7,7C28.9,32.1,32.1,28.9,32.1,25L32.1,25z
		 M30.7,25c0,3.1-2.5,5.6-5.6,5.6s-5.6-2.5-5.6-5.6c0-3.1,2.5-5.6,5.6-5.6S30.7,21.9,30.7,25L30.7,25z"/>
	<path class="st28" d="M31.4,25c0-3.5-2.8-6.3-6.3-6.3c-3.5,0-6.3,2.8-6.3,6.3c0,3.5,2.8,6.3,6.3,6.3C28.5,31.4,31.4,28.5,31.4,25
		L31.4,25z M29.9,25c0,2.7-2.2,4.9-4.9,4.9c-2.7,0-4.9-2.2-4.9-4.9c0-2.7,2.2-4.9,4.9-4.9C27.7,20.1,29.9,22.3,29.9,25L29.9,25z"/>
	<path class="st29" d="M30.7,25c0-3.1-2.5-5.6-5.6-5.6s-5.6,2.5-5.6,5.6c0,3.1,2.5,5.6,5.6,5.6S30.7,28.1,30.7,25L30.7,25z M29.2,25
		c0,2.3-1.9,4.2-4.2,4.2c-2.3,0-4.2-1.9-4.2-4.2c0-2.3,1.9-4.2,4.2-4.2C27.3,20.8,29.2,22.7,29.2,25L29.2,25z"/>
	<path class="st30" d="M29.9,25c0-2.7-2.2-4.9-4.9-4.9c-2.7,0-4.9,2.2-4.9,4.9c0,2.7,2.2,4.9,4.9,4.9C27.7,29.9,29.9,27.7,29.9,25
		L29.9,25z M28.5,25c0,1.9-1.6,3.5-3.5,3.5c-2,0-3.5-1.6-3.5-3.5c0-2,1.6-3.5,3.5-3.5C27,21.5,28.5,23.1,28.5,25L28.5,25z"/>
	<path class="st31" d="M29.2,25c0-2.3-1.9-4.2-4.2-4.2c-2.3,0-4.2,1.9-4.2,4.2c0,2.3,1.9,4.2,4.2,4.2C27.3,29.2,29.2,27.3,29.2,25
		L29.2,25z M27.8,25c0,1.5-1.3,2.8-2.8,2.8c-1.6,0-2.8-1.3-2.8-2.8c0-1.6,1.3-2.8,2.8-2.8C26.6,22.2,27.8,23.5,27.8,25L27.8,25z"/>
	<path class="st32" d="M28.5,25c0-2-1.6-3.5-3.5-3.5c-2,0-3.5,1.6-3.5,3.5c0,1.9,1.6,3.5,3.5,3.5C27,28.5,28.5,26.9,28.5,25L28.5,25
		z M27.1,25c0,1.2-0.9,2.1-2.1,2.1c-1.2,0-2.1-0.9-2.1-2.1c0-1.2,0.9-2.1,2.1-2.1C26.2,22.9,27.1,23.8,27.1,25L27.1,25z"/>
	<path class="st33" d="M27.8,25c0-1.6-1.3-2.8-2.8-2.8c-1.6,0-2.8,1.3-2.8,2.8c0,1.5,1.3,2.8,2.8,2.8C26.6,27.8,27.8,26.5,27.8,25
		L27.8,25z M26.4,25c0,0.8-0.6,1.4-1.4,1.4c-0.8,0-1.4-0.6-1.4-1.4c0-0.8,0.6-1.4,1.4-1.4C25.8,23.6,26.4,24.2,26.4,25L26.4,25z"/>
	<path class="st34" d="M27.1,25c0-1.2-0.9-2.1-2.1-2.1c-1.2,0-2.1,0.9-2.1,2.1c0,1.2,0.9,2.1,2.1,2.1C26.2,27.1,27.1,26.2,27.1,25
		L27.1,25z"/>
	<path class="st35" d="M26.4,25c0-0.8-0.6-1.4-1.4-1.4c-0.8,0-1.4,0.6-1.4,1.4c0,0.8,0.6,1.4,1.4,1.4C25.8,26.4,26.4,25.8,26.4,25
		L26.4,25z"/>
	<path class="st36" d="M25.7,25c0-0.4-0.3-0.7-0.7-0.7c-0.4,0-0.7,0.3-0.7,0.7c0,0.4,0.3,0.7,0.7,0.7C25.4,25.7,25.7,25.4,25.7,25
		L25.7,25z"/>
	<path class="st37" d="M12.2,38.8c1.6,1.6,3.4,2.9,5.4,3.8l-5.4-12.4L7.7,19.9c-0.6,1.8-0.9,3.7-0.9,5.7
		C6.8,30.8,8.9,35.4,12.2,38.8L12.2,38.8z M38.8,43.6c5.5-4.1,9-10.6,9-17.9c0-7.4-3.6-13.9-9-18C35.1,5,30.5,3.3,25.5,3.3
		c-5,0-9.6,1.6-13.3,4.4c-5.5,4.1-9,10.6-9,18c0,7.4,3.6,13.9,9,17.9c3.7,2.8,8.3,4.4,13.3,4.4C30.5,48,35.1,46.4,38.8,43.6
		L38.8,43.6z M38.8,12.5c0.7,0.7,1.3,1.4,1.8,2.2l-1.8,4.2L32,34.7l-3.6-8.1h-2.9h-2.9l-3.6,8.1l-6.9-15.8l-1.8-4.2
		c0.6-0.8,1.2-1.5,1.8-2.2c1.1-1.2,2.4-2.2,3.8-3l6.5,15.1h3h3L35,9.5C36.4,10.4,37.7,11.4,38.8,12.5L38.8,12.5z M38.8,30.3
		l4.5-10.3c0.6,1.8,0.9,3.7,0.9,5.7c0,5.1-2.1,9.8-5.4,13.1c-1.5,1.6-3.4,2.9-5.4,3.8L38.8,30.3L38.8,30.3z M25.5,31.7l5.2,11.9
		c-1.7,0.5-3.4,0.7-5.2,0.7c-1.8,0-3.6-0.2-5.2-0.7L25.5,31.7L25.5,31.7z M25.5,20l5.4-12.3c-1.7-0.5-3.5-0.8-5.4-0.8
		c-1.9,0-3.7,0.3-5.4,0.8L25.5,20L25.5,20z"/>
	<path class="st38" d="M11.7,38.2c1.6,1.6,3.4,2.9,5.4,3.8l-5.4-12.4L7.2,19.3C6.6,21.1,6.3,23,6.3,25C6.3,30.1,8.4,34.8,11.7,38.2
		L11.7,38.2z M38.3,42.9c5.5-4.1,9-10.6,9-17.9c0-7.4-3.6-13.9-9-18C34.6,4.3,30,2.6,25,2.6s-9.6,1.6-13.3,4.4c-5.5,4.1-9,10.6-9,18
		c0,7.4,3.6,13.9,9,17.9c3.7,2.8,8.3,4.4,13.3,4.4S34.6,45.7,38.3,42.9L38.3,42.9z M38.3,11.9c0.7,0.7,1.3,1.4,1.8,2.2l-1.8,4.2
		L31.5,34l-3.6-8.1H25h-2.9L18.6,34l-6.9-15.8L9.9,14c0.5-0.8,1.2-1.5,1.8-2.2c1.1-1.2,2.4-2.2,3.8-3L22,24h3h3l6.5-15.1
		C35.9,9.7,37.2,10.7,38.3,11.9L38.3,11.9z M38.3,29.6l4.5-10.3c0.6,1.8,0.9,3.7,0.9,5.7c0,5.1-2.1,9.8-5.4,13.1
		C36.8,39.7,35,41,32.9,42L38.3,29.6L38.3,29.6z M25,31L30.2,43c-1.6,0.5-3.4,0.7-5.2,0.7c-1.8,0-3.6-0.3-5.2-0.7L25,31L25,31z
		 M25,19.3l5.4-12.2c-1.7-0.5-3.5-0.8-5.4-0.8s-3.7,0.3-5.4,0.8L25,19.3L25,19.3z"/>
</g>
</svg>
