<?xml version="1.0" encoding="utf-8"?>
<!-- Generator: Adobe Illustrator 21.1.0, SVG Export Plug-In . SVG Version: 6.00 Build 0)  -->
<svg version="1.1" id="Слой_1" xmlns="http://www.w3.org/2000/svg" xmlns:xlink="http://www.w3.org/1999/xlink" x="0px" y="0px"
	 width="50px" height="50px" viewBox="0 0 50 50" style="enable-background:new 0 0 50 50;" xml:space="preserve">
<style type="text/css">
	.st0{fill:#425E99;}
	.st1{fill:#FFFFFF;}
</style>
<g>
	<path class="st0" d="M25,34.5c13.8,0,25-4.2,25-9.5s-11.2-9.5-25-9.5c-13.8,0-25,4.2-25,9.5S11.2,34.5,25,34.5L25,34.5z"/>
	<path class="st1" d="M25,33.5c-13.3,0-24-3.8-24-8.5c0-4.7,10.8-8.5,24-8.5c13.3,0,24,3.8,24,8.5S38.3,33.5,25,33.5z"/>
	<path class="st0" d="M25,32.8c12.9,0,23.3-3.5,23.3-7.8c0-4.3-10.4-7.8-23.3-7.8c-12.9,0-23.3,3.5-23.3,7.8
		C1.8,29.3,12.1,32.8,25,32.8L25,32.8z"/>
	<path class="st1" d="M31.1,26.6c1.1-1,1.7-2.1,3.3-2.1c1,0,1.2,0.8,1.4,1.1l2.1-3.5h1.3l-3.5,6.1c-0.1,0.1-0.2,0.4-0.2,0.6
		c0,0.3,0.4,0.2,0.3,0.2c0.7,0,2-1.4,2.3-1.7c0.1-0.1,0.2-0.2,0.2-0.2c0.1,0,0.2,0.1,0.2,0.2c0,0.1-0.2,0.3-0.3,0.5
		c-0.6,0.8-1.7,2-2.9,2.1c-0.6,0-0.8-0.2-0.9-0.7c-0.3,0.2-1.2,0.7-2.2,0.7c-0.8,0-1.1-0.5-1.3-0.9c-0.2-0.3-0.2-0.7-0.1-1.2
		c-0.4,0.2-0.9,0.3-1.4,0.2c-0.7,0-1.1-0.3-1.3-1.1c-0.8,1.4-0.8,1.5-1.6,3h-1.4l1.8-3c0.2-0.4,0.3-0.7,0.4-1.1
		c0.1-0.2-0.1-0.4-0.3-0.4c-0.2,0-0.6,0.2-1,0.6c0,0-0.9,1-1.6,2c-0.6,0.9-1.7,2-2.9,2c-0.9,0-1.6-0.5-1.8-1.4c0,0-0.1,0.2-0.9,0.6
		c-0.1,0-0.2,0.1-0.3,0.1c-0.2-0.1-0.2-0.3-0.2-0.4c0.1,0,0.2-0.1,0.5-0.3c0.6-0.5,0.7-0.8,0.7-0.8c0.2-0.3,0.4-0.8,0.6-1.1
		c0.5-1,1.3-2,2.7-2c0.2,0,0.3,0.1,0.3,0.2c0.1,0.1,0.1,0.3,0.1,0.3c-1,0.2-1.6,0.7-2,1.3c-0.2,0.4-0.5,0.9-0.5,1.4
		c-0.1,0.7,0.2,1.2,0.7,1.3c0.9,0.2,1.7-0.5,2.3-1.6c0.2-0.3,0.3-1,0.3-1.4c0-0.4-0.2-0.8-0.4-1c0-0.3,0.2-0.5,0.4-0.5
		c0.1,0,0.1,0,0.2,0.1c0.3,0.3,0.5,0.9,0.5,1.4c0,0.2,0,0.3,0,0.5c0.7-0.8,1.5-1.9,2.2-2.1c0.1-0.1,0.3-0.1,0.4-0.1
		c1.2,0,1.1,1.1,1.1,1.1c0.6-0.7,1.1-1,1.7-1c0.6,0,0.9,0.5,0.9,0.9c0,0.4-0.3,0.9-0.9,0.9c-0.5,0-0.7-0.2-0.9-0.6
		c-0.3,0.1-0.5,0.3-0.5,0.7c-0.1,0.5,0.3,1,0.8,1C30.4,27.2,30.8,26.9,31.1,26.6L31.1,26.6z M32.1,19.6c0,0.5-1.8,1.5-3.3,1.5
		c-2.4,0-4.9-1.1-6-1.4c-1.2-0.3-2.4-0.5-3.2-0.5c-3.1,0-4.5,1.3-4.4,2.6c0,0.5,0.4,0.8,1,0.7c0.6-0.1,1.5-0.7,1.8-1.3
		c0.1-0.1,0.2-0.1,0.2-0.1c0.1,0.1,0.1,0.2,0.1,0.2c-0.1,0.6-1.1,2.4-2.7,2.4c-0.9,0-1.6-0.9-1.5-1.7c0-1.6,1.6-3.2,5.7-3.2
		c0.7,0,1.6,0.1,2.6,0.2c1.1,0.2,3.8,0.6,6,0.7c0.8,0,1.8,0,2.7-0.1c0.9-0.2,0.7-0.2,1.1-0.2C32.1,19.4,32.1,19.5,32.1,19.6
		L32.1,19.6z"/>
	<path class="st0" d="M34.5,25.2c-0.6-0.1-1.3,0.4-1.9,1.1c-0.3,0.4-0.6,1-0.6,1.4c-0.1,0.4,0.1,0.8,0.2,0.9
		c0.2,0.1,0.8,0.5,1.8-0.6c0.6-0.6,1.1-1.5,1.1-1.5l-0.2-0.1C35.2,26,35.2,25.3,34.5,25.2z"/>
	<path class="st1" d="M22.7,23.3c0,0.2,0.2,0.3,0.5,0.3c-0.1,0.2,0,0.3-0.1,0.2c-0.5,0-0.7-0.5-0.7-0.5c-0.6,0.1-1.3,0.2-2.6,0.3
		c-3.2,5.2-4.2,6.1-6.2,6.1c-1.4,0-2.7-0.9-2.7-2.6c0-1,0.8-2.2,2.3-2.6c0.2,0,0.2,0.1,0.2,0.2c0,0.1-0.1,0.2-0.2,0.2
		c-0.4,0.2-1.2,1-1.2,1.8c0,0.6,0.4,1.3,1,1.4c0.2,0.1,0.3,0,0.5,0c1.6,0,3.3-1.8,5.2-4.4c-0.3,0-1.6,0.2-1.9,0.5
		c-0.2,0.1-0.2,0.1-0.3-0.1c0,0,0.1-0.2,0.1-0.2c0.5-0.6,2.1-0.7,2.4-0.7c1.4-2.2,3.3-3.6,3.7-3.6c0.1,0,0.2,0.1,0.2,0.3
		c0,0-0.2,0.2-0.2,0.3c-0.3,0.3-1.4,1-2.6,3c1-0.1,2.1-0.2,2.1-0.2s-0.1-0.2-0.1-0.4c0.1-0.7,0.5-1.1,1-1c0.3,0.1,0.5,0.3,0.5,0.5
		c0,0.3-0.2,0.7-0.4,0.9C23,23.1,22.8,23.2,22.7,23.3L22.7,23.3z"/>
	<path class="st0" d="M22.6,23c0,0,0.2,0,0.4-0.3c0.1-0.1,0.3-0.4,0.2-0.6c0-0.1-0.1-0.2-0.2-0.2c-0.2,0.1-0.4,0.2-0.5,0.4
		C22.5,22.6,22.5,22.8,22.6,23L22.6,23z"/>
</g>
</svg>
